<svg width="35" height="35" viewBox="0 0 35 35" fill="none" xmlns="http://www.w3.org/2000/svg">
<g clip-path="url(#clip0_4024_1973)">
<g clip-path="url(#clip1_4024_1973)">
<path d="M11.974 35C5.361 35 0 29.639 0 23.026V11.974C0 5.361 5.361 0 11.974 0H23.026C29.639 0 35 5.361 35 11.974V23.026C35 29.639 29.639 35 23.026 35H11.974Z" fill="#5C30A8"/>
<path d="M13.7021 15.125C16.7591 13.666 19.1901 11.156 20.5521 8.05396C19.6631 7.11996 18.5061 6.45296 17.2611 6.05296L16.5941 5.82996C16.5441 5.92696 16.5131 6.03296 16.5051 6.14096C15.4371 9.16696 13.2571 11.612 10.3231 12.991C8.27605 13.97 6.76405 15.749 6.05205 17.885L5.83105 18.551C5.92705 18.601 6.03305 18.631 6.14105 18.64C6.98705 18.951 7.83105 19.352 8.63205 19.842C9.78905 17.78 11.5621 16.13 13.7021 15.125ZM26.6031 15.304C24.9401 17.826 22.6161 19.841 19.8851 21.131C17.6181 22.199 15.8821 24.2 15.0821 26.602L14.8591 27.358C15.7231 28.124 16.7391 28.699 17.8401 29.048L18.5061 29.271C18.5571 29.174 18.5871 29.068 18.5961 28.959C19.6631 25.934 21.8431 23.488 24.7781 22.11C26.8241 21.131 28.3811 19.352 29.0491 17.216L29.2711 16.55C28.3371 16.283 27.4471 15.837 26.6031 15.304ZM13.0791 25.047C14.1871 22.37 16.2471 20.199 18.8621 18.952C21.2641 17.796 23.2651 16.018 24.6441 13.838C23.6211 12.859 22.7761 11.747 22.1541 10.413C20.4881 13.459 17.9041 15.903 14.7701 17.396C12.9461 18.241 11.4781 19.709 10.5881 21.488C11.5671 22.423 12.3681 23.579 12.9901 24.868L13.0791 25.047Z" fill="white"/>
</g>
</g>
<defs>
<clipPath id="clip0_4024_1973">
<rect width="35" height="35" fill="white"/>
</clipPath>
<clipPath id="clip1_4024_1973">
<rect width="35" height="35" fill="white"/>
</clipPath>
</defs>
</svg>
